G75*
%MOIN*%
%OFA0B0*%
%FSLAX25Y25*%
%IPPOS*%
%LPD*%
%AMOC8*
5,1,8,0,0,1.08239X$1,22.5*
%
%ADD10C,0.13398*%
%ADD11C,0.17800*%
%ADD12C,0.08200*%
%ADD13C,0.07400*%
%ADD14C,0.13800*%
%ADD15R,0.07099X0.07887*%
%ADD16OC8,0.06000*%
%ADD17R,0.03950X0.04343*%
%ADD18C,0.04800*%
D10*
X0011000Y0025000D03*
X0121000Y0048000D03*
X0121000Y0112000D03*
X0116000Y0145000D03*
X0011000Y0145000D03*
D11*
X0241000Y0058937D03*
X0259504Y0047126D03*
X0241000Y0035315D03*
D12*
X0091000Y0035000D03*
X0091000Y0025000D03*
X0091000Y0045000D03*
X0091000Y0055000D03*
X0091000Y0065000D03*
X0091000Y0075000D03*
X0091000Y0085000D03*
X0091000Y0095000D03*
X0091000Y0105000D03*
X0091000Y0115000D03*
X0091000Y0125000D03*
X0091000Y0135000D03*
X0136000Y0135000D03*
X0146000Y0135000D03*
X0156000Y0135000D03*
X0166000Y0135000D03*
X0176000Y0135000D03*
X0186000Y0135000D03*
X0196000Y0135000D03*
X0206000Y0135000D03*
X0036000Y0135000D03*
X0036000Y0125000D03*
X0036000Y0115000D03*
X0036000Y0105000D03*
X0036000Y0095000D03*
X0036000Y0085000D03*
X0036000Y0075000D03*
X0036000Y0065000D03*
X0036000Y0055000D03*
X0036000Y0045000D03*
X0036000Y0035000D03*
X0036000Y0025000D03*
X0016000Y0055000D03*
X0016000Y0065000D03*
X0016000Y0075000D03*
X0016000Y0085000D03*
X0016000Y0095000D03*
X0016000Y0105000D03*
D13*
X0236000Y0083300D02*
X0236000Y0076700D01*
X0246000Y0076700D02*
X0246000Y0083300D01*
X0256000Y0083300D02*
X0256000Y0076700D01*
D14*
X0246000Y0139000D03*
D15*
X0206512Y0030000D03*
X0195488Y0030000D03*
X0166512Y0030000D03*
X0155488Y0030000D03*
D16*
X0161000Y0080000D03*
X0141000Y0080000D03*
X0181000Y0080000D03*
X0201000Y0080000D03*
X0201000Y0120000D03*
X0181000Y0120000D03*
X0161000Y0120000D03*
X0141000Y0120000D03*
D17*
X0141000Y0064331D03*
X0137260Y0056063D03*
X0144740Y0056063D03*
X0157260Y0046063D03*
X0164740Y0046063D03*
X0161000Y0054331D03*
X0177260Y0056063D03*
X0184740Y0056063D03*
X0201000Y0054331D03*
X0197260Y0046063D03*
X0204740Y0046063D03*
X0181000Y0064331D03*
D18*
X0186600Y0067800D03*
X0149800Y0063000D03*
X0135400Y0050200D03*
X0175400Y0090200D03*
X0204200Y0104600D03*
M02*
