G75*
%MOIN*%
%OFA0B0*%
%FSLAX25Y25*%
%IPPOS*%
%LPD*%
%AMOC8*
5,1,8,0,0,1.08239X$1,22.5*
%
%ADD10C,0.00800*%
%ADD11C,0.00100*%
%ADD12C,0.00500*%
%ADD13C,0.00400*%
%ADD14C,0.00600*%
%ADD15C,0.00200*%
%ADD16R,0.03000X0.02500*%
%ADD17R,0.05000X0.11000*%
%ADD18C,0.00700*%
%ADD19C,0.00300*%
%ADD20R,0.02400X0.03400*%
D10*
X0031000Y0022500D02*
X0033500Y0020000D01*
X0038500Y0020000D01*
X0041000Y0022500D01*
X0041000Y0027500D01*
X0038500Y0030000D01*
X0041000Y0032500D01*
X0041000Y0037500D01*
X0038500Y0040000D01*
X0041000Y0042500D01*
X0041000Y0047500D01*
X0038500Y0050000D01*
X0041000Y0052500D01*
X0041000Y0057500D01*
X0038500Y0060000D01*
X0041000Y0062500D01*
X0041000Y0067500D01*
X0038500Y0070000D01*
X0041000Y0072500D01*
X0041000Y0077500D01*
X0038500Y0080000D01*
X0041000Y0082500D01*
X0041000Y0087500D01*
X0038500Y0090000D01*
X0041000Y0092500D01*
X0041000Y0097500D01*
X0038500Y0100000D01*
X0041000Y0102500D01*
X0041000Y0107500D01*
X0038500Y0110000D01*
X0041000Y0112500D01*
X0041000Y0117500D01*
X0038500Y0120000D01*
X0041000Y0122500D01*
X0041000Y0127500D01*
X0038500Y0130000D01*
X0041000Y0132500D01*
X0041000Y0137500D01*
X0038500Y0140000D01*
X0033500Y0140000D01*
X0031000Y0137500D01*
X0031000Y0132500D01*
X0033500Y0130000D01*
X0031000Y0127500D01*
X0031000Y0122500D01*
X0033500Y0120000D01*
X0031000Y0117500D01*
X0031000Y0112500D01*
X0033500Y0110000D01*
X0031000Y0107500D01*
X0031000Y0102500D01*
X0033500Y0100000D01*
X0031000Y0097500D01*
X0031000Y0092500D01*
X0033500Y0090000D01*
X0031000Y0087500D01*
X0031000Y0082500D01*
X0033500Y0080000D01*
X0031000Y0077500D01*
X0031000Y0072500D01*
X0033500Y0070000D01*
X0031000Y0067500D01*
X0031000Y0062500D01*
X0033500Y0060000D01*
X0031000Y0057500D01*
X0031000Y0052500D01*
X0033500Y0050000D01*
X0031000Y0047500D01*
X0031000Y0042500D01*
X0033500Y0040000D01*
X0031000Y0037500D01*
X0031000Y0032500D01*
X0033500Y0030000D01*
X0031000Y0027500D01*
X0031000Y0022500D01*
X0018500Y0050000D02*
X0013500Y0050000D01*
X0011000Y0052500D01*
X0011000Y0057500D01*
X0013500Y0060000D01*
X0011000Y0062500D01*
X0011000Y0067500D01*
X0013500Y0070000D01*
X0011000Y0072500D01*
X0011000Y0077500D01*
X0013500Y0080000D01*
X0011000Y0082500D01*
X0011000Y0087500D01*
X0013500Y0090000D01*
X0011000Y0092500D01*
X0011000Y0097500D01*
X0013500Y0100000D01*
X0011000Y0102500D01*
X0011000Y0107500D01*
X0013500Y0110000D01*
X0018500Y0110000D01*
X0021000Y0107500D01*
X0021000Y0102500D01*
X0018500Y0100000D01*
X0021000Y0097500D01*
X0021000Y0092500D01*
X0018500Y0090000D01*
X0021000Y0087500D01*
X0021000Y0082500D01*
X0018500Y0080000D01*
X0021000Y0077500D01*
X0021000Y0072500D01*
X0018500Y0070000D01*
X0021000Y0067500D01*
X0021000Y0062500D01*
X0018500Y0060000D01*
X0021000Y0057500D01*
X0021000Y0052500D01*
X0018500Y0050000D01*
X0086000Y0047500D02*
X0086000Y0042500D01*
X0088500Y0040000D01*
X0086000Y0037500D01*
X0086000Y0032500D01*
X0088500Y0030000D01*
X0086000Y0027500D01*
X0086000Y0022500D01*
X0088500Y0020000D01*
X0093500Y0020000D01*
X0096000Y0022500D01*
X0096000Y0027500D01*
X0093500Y0030000D01*
X0096000Y0032500D01*
X0096000Y0037500D01*
X0093500Y0040000D01*
X0096000Y0042500D01*
X0096000Y0047500D01*
X0093500Y0050000D01*
X0096000Y0052500D01*
X0096000Y0057500D01*
X0093500Y0060000D01*
X0096000Y0062500D01*
X0096000Y0067500D01*
X0093500Y0070000D01*
X0096000Y0072500D01*
X0096000Y0077500D01*
X0093500Y0080000D01*
X0096000Y0082500D01*
X0096000Y0087500D01*
X0093500Y0090000D01*
X0096000Y0092500D01*
X0096000Y0097500D01*
X0093500Y0100000D01*
X0096000Y0102500D01*
X0096000Y0107500D01*
X0093500Y0110000D01*
X0096000Y0112500D01*
X0096000Y0117500D01*
X0093500Y0120000D01*
X0096000Y0122500D01*
X0096000Y0127500D01*
X0093500Y0130000D01*
X0096000Y0132500D01*
X0096000Y0137500D01*
X0093500Y0140000D01*
X0088500Y0140000D01*
X0086000Y0137500D01*
X0086000Y0132500D01*
X0088500Y0130000D01*
X0086000Y0127500D01*
X0086000Y0122500D01*
X0088500Y0120000D01*
X0086000Y0117500D01*
X0086000Y0112500D01*
X0088500Y0110000D01*
X0086000Y0107500D01*
X0086000Y0102500D01*
X0088500Y0100000D01*
X0086000Y0097500D01*
X0086000Y0092500D01*
X0088500Y0090000D01*
X0086000Y0087500D01*
X0086000Y0082500D01*
X0088500Y0080000D01*
X0086000Y0077500D01*
X0086000Y0072500D01*
X0088500Y0070000D01*
X0086000Y0067500D01*
X0086000Y0062500D01*
X0088500Y0060000D01*
X0086000Y0057500D01*
X0086000Y0052500D01*
X0088500Y0050000D01*
X0086000Y0047500D01*
X0135488Y0059606D02*
X0135488Y0062756D01*
X0137850Y0062756D01*
X0144150Y0062756D02*
X0146512Y0062756D01*
X0146512Y0059606D01*
X0155488Y0052756D02*
X0155488Y0049606D01*
X0155488Y0052756D02*
X0157850Y0052756D01*
X0164150Y0052756D02*
X0166512Y0052756D01*
X0166512Y0049606D01*
X0175488Y0059606D02*
X0175488Y0062756D01*
X0177850Y0062756D01*
X0184150Y0062756D02*
X0186512Y0062756D01*
X0186512Y0059606D01*
X0195488Y0052756D02*
X0195488Y0049606D01*
X0195488Y0052756D02*
X0197850Y0052756D01*
X0204150Y0052756D02*
X0206512Y0052756D01*
X0206512Y0049606D01*
X0223283Y0058937D02*
X0231551Y0058937D01*
X0223283Y0058937D02*
X0223283Y0016811D01*
X0258717Y0016811D01*
X0258717Y0037677D01*
X0258717Y0056181D02*
X0258717Y0058937D01*
X0250449Y0058937D01*
X0208500Y0130000D02*
X0203500Y0130000D01*
X0201000Y0132500D01*
X0198500Y0130000D01*
X0193500Y0130000D01*
X0191000Y0132500D01*
X0188500Y0130000D01*
X0183500Y0130000D01*
X0181000Y0132500D01*
X0178500Y0130000D01*
X0173500Y0130000D01*
X0171000Y0132500D01*
X0168500Y0130000D01*
X0163500Y0130000D01*
X0161000Y0132500D01*
X0158500Y0130000D01*
X0153500Y0130000D01*
X0151000Y0132500D01*
X0148500Y0130000D01*
X0143500Y0130000D01*
X0141000Y0132500D01*
X0138500Y0130000D01*
X0133500Y0130000D01*
X0131000Y0132500D01*
X0131000Y0137500D01*
X0133500Y0140000D01*
X0138500Y0140000D01*
X0141000Y0137500D01*
X0143500Y0140000D01*
X0148500Y0140000D01*
X0151000Y0137500D01*
X0153500Y0140000D01*
X0158500Y0140000D01*
X0161000Y0137500D01*
X0163500Y0140000D01*
X0168500Y0140000D01*
X0171000Y0137500D01*
X0173500Y0140000D01*
X0178500Y0140000D01*
X0181000Y0137500D01*
X0183500Y0140000D01*
X0188500Y0140000D01*
X0191000Y0137500D01*
X0193500Y0140000D01*
X0198500Y0140000D01*
X0201000Y0137500D01*
X0203500Y0140000D01*
X0208500Y0140000D01*
X0211000Y0137500D01*
X0211000Y0132500D01*
X0208500Y0130000D01*
D11*
X0226550Y0026551D02*
X0227051Y0026551D01*
X0226801Y0026551D02*
X0226801Y0025300D01*
X0226550Y0025050D01*
X0226300Y0025050D01*
X0226050Y0025300D01*
X0227523Y0025050D02*
X0227523Y0026551D01*
X0228274Y0026551D01*
X0228524Y0026301D01*
X0228524Y0025801D01*
X0228274Y0025550D01*
X0227523Y0025550D01*
X0228997Y0025801D02*
X0229747Y0026551D01*
X0229747Y0025050D01*
X0229997Y0025801D02*
X0228997Y0025801D01*
X0228997Y0021551D02*
X0228997Y0020050D01*
X0229497Y0020550D01*
X0229997Y0020050D01*
X0229997Y0021551D01*
X0230470Y0021551D02*
X0230470Y0020050D01*
X0231471Y0020050D01*
X0231943Y0020050D02*
X0231943Y0021551D01*
X0232694Y0021551D01*
X0232944Y0021301D01*
X0232944Y0020801D01*
X0232694Y0020550D01*
X0231943Y0020550D01*
X0232443Y0020550D02*
X0232944Y0020050D01*
X0233416Y0019800D02*
X0234417Y0019800D01*
X0234890Y0020300D02*
X0235140Y0020050D01*
X0235390Y0020050D01*
X0235640Y0020300D01*
X0235640Y0021551D01*
X0235390Y0021551D02*
X0235890Y0021551D01*
X0236363Y0021051D02*
X0236863Y0021551D01*
X0237364Y0021051D01*
X0237364Y0020050D01*
X0237836Y0020300D02*
X0238086Y0020050D01*
X0238587Y0020050D01*
X0238837Y0020300D01*
X0239309Y0020050D02*
X0239309Y0021551D01*
X0238837Y0021301D02*
X0238587Y0021551D01*
X0238086Y0021551D01*
X0237836Y0021301D01*
X0237836Y0020300D01*
X0237364Y0020801D02*
X0236363Y0020801D01*
X0236363Y0021051D02*
X0236363Y0020050D01*
X0239309Y0020550D02*
X0240310Y0021551D01*
X0240783Y0021551D02*
X0241533Y0021551D01*
X0241783Y0021301D01*
X0241783Y0020801D01*
X0241533Y0020550D01*
X0240783Y0020550D01*
X0240783Y0020050D02*
X0240783Y0021551D01*
X0239559Y0020801D02*
X0240310Y0020050D01*
X0242756Y0020050D02*
X0242756Y0021551D01*
X0242256Y0021551D02*
X0243257Y0021551D01*
X0243729Y0021551D02*
X0243729Y0020050D01*
X0243729Y0020801D02*
X0244730Y0020801D01*
X0244730Y0021551D02*
X0244730Y0020050D01*
X0231471Y0021551D02*
X0230470Y0021551D01*
X0230470Y0020801D02*
X0230970Y0020801D01*
X0228524Y0021301D02*
X0228274Y0021551D01*
X0227773Y0021551D01*
X0227523Y0021301D01*
X0227523Y0020300D01*
X0227773Y0020050D01*
X0228274Y0020050D01*
X0228524Y0020300D01*
X0228524Y0021301D01*
X0227051Y0021301D02*
X0227051Y0020801D01*
X0226801Y0020550D01*
X0226050Y0020550D01*
X0226050Y0020050D02*
X0226050Y0021551D01*
X0226801Y0021551D01*
X0227051Y0021301D01*
D12*
X0028550Y0020701D02*
X0027799Y0019950D01*
X0028550Y0020701D02*
X0028550Y0021451D01*
X0027799Y0022202D01*
X0024046Y0022202D01*
X0024046Y0021451D02*
X0024046Y0022953D01*
X0024046Y0024554D02*
X0024046Y0026806D01*
X0024797Y0027556D01*
X0026298Y0027556D01*
X0027049Y0026806D01*
X0027049Y0024554D01*
X0028550Y0024554D02*
X0024046Y0024554D01*
X0024797Y0029158D02*
X0024046Y0029908D01*
X0024046Y0031410D01*
X0024797Y0032160D01*
X0025547Y0032160D01*
X0026298Y0031410D01*
X0027049Y0032160D01*
X0027799Y0032160D01*
X0028550Y0031410D01*
X0028550Y0029908D01*
X0027799Y0029158D01*
X0026298Y0030659D02*
X0026298Y0031410D01*
X0013550Y0035701D02*
X0013550Y0036451D01*
X0012799Y0037202D01*
X0009046Y0037202D01*
X0009046Y0036451D02*
X0009046Y0037953D01*
X0009046Y0039554D02*
X0009046Y0041806D01*
X0009797Y0042556D01*
X0011298Y0042556D01*
X0012049Y0041806D01*
X0012049Y0039554D01*
X0013550Y0039554D02*
X0009046Y0039554D01*
X0010547Y0044158D02*
X0009046Y0045659D01*
X0013550Y0045659D01*
X0013550Y0044158D02*
X0013550Y0047160D01*
X0013550Y0035701D02*
X0012799Y0034950D01*
X0079046Y0032160D02*
X0079046Y0029158D01*
X0081298Y0029158D01*
X0080547Y0030659D01*
X0080547Y0031410D01*
X0081298Y0032160D01*
X0082799Y0032160D01*
X0083550Y0031410D01*
X0083550Y0029908D01*
X0082799Y0029158D01*
X0081298Y0027556D02*
X0082049Y0026806D01*
X0082049Y0024554D01*
X0083550Y0024554D02*
X0079046Y0024554D01*
X0079046Y0026806D01*
X0079797Y0027556D01*
X0081298Y0027556D01*
X0079046Y0022953D02*
X0079046Y0021451D01*
X0079046Y0022202D02*
X0082799Y0022202D01*
X0083550Y0021451D01*
X0083550Y0020701D01*
X0082799Y0019950D01*
X0151000Y0025000D02*
X0171000Y0025000D01*
X0171000Y0035000D01*
X0151000Y0035000D01*
X0151000Y0025000D01*
X0191000Y0025000D02*
X0211000Y0025000D01*
X0211000Y0035000D01*
X0191000Y0035000D01*
X0191000Y0025000D01*
X0198746Y0097640D02*
X0200998Y0097640D01*
X0200247Y0099141D01*
X0200247Y0099892D01*
X0200998Y0100643D01*
X0202499Y0100643D01*
X0203250Y0099892D01*
X0203250Y0098391D01*
X0202499Y0097640D01*
X0198746Y0097640D02*
X0198746Y0100643D01*
X0202499Y0102244D02*
X0202499Y0102995D01*
X0203250Y0102995D01*
X0203250Y0102244D01*
X0202499Y0102244D01*
X0202499Y0104546D02*
X0200998Y0104546D01*
X0200998Y0106798D01*
X0201749Y0107549D01*
X0202499Y0107549D01*
X0203250Y0106798D01*
X0203250Y0105297D01*
X0202499Y0104546D01*
X0200998Y0104546D02*
X0199497Y0106047D01*
X0198746Y0107549D01*
X0191750Y0108397D02*
X0190999Y0107646D01*
X0191750Y0108397D02*
X0191750Y0109898D01*
X0190999Y0110649D01*
X0190249Y0110649D01*
X0189498Y0109898D01*
X0189498Y0109147D01*
X0189498Y0109898D02*
X0188747Y0110649D01*
X0187997Y0110649D01*
X0187246Y0109898D01*
X0187246Y0108397D01*
X0187997Y0107646D01*
X0187997Y0106045D02*
X0187246Y0105294D01*
X0187246Y0103042D01*
X0191750Y0103042D01*
X0190249Y0103042D02*
X0190249Y0105294D01*
X0189498Y0106045D01*
X0187997Y0106045D01*
X0190249Y0104543D02*
X0191750Y0106045D01*
X0183250Y0105297D02*
X0183250Y0106798D01*
X0182499Y0107549D01*
X0181749Y0107549D01*
X0180998Y0106798D01*
X0180998Y0104546D01*
X0182499Y0104546D01*
X0183250Y0105297D01*
X0183250Y0102995D02*
X0183250Y0102244D01*
X0182499Y0102244D01*
X0182499Y0102995D01*
X0183250Y0102995D01*
X0180998Y0104546D02*
X0179497Y0106047D01*
X0178746Y0107549D01*
X0171750Y0107646D02*
X0171750Y0110649D01*
X0171750Y0107646D02*
X0168747Y0110649D01*
X0167997Y0110649D01*
X0167246Y0109898D01*
X0167246Y0108397D01*
X0167997Y0107646D01*
X0163250Y0106798D02*
X0162499Y0107549D01*
X0161749Y0107549D01*
X0160998Y0106798D01*
X0160998Y0104546D01*
X0162499Y0104546D01*
X0163250Y0105297D01*
X0163250Y0106798D01*
X0160998Y0104546D02*
X0159497Y0106047D01*
X0158746Y0107549D01*
X0162499Y0102995D02*
X0163250Y0102995D01*
X0163250Y0102244D01*
X0162499Y0102244D01*
X0162499Y0102995D01*
X0162499Y0100643D02*
X0163250Y0099892D01*
X0163250Y0098391D01*
X0162499Y0097640D01*
X0160998Y0097640D02*
X0160247Y0099141D01*
X0160247Y0099892D01*
X0160998Y0100643D01*
X0162499Y0100643D01*
X0158746Y0100643D02*
X0158746Y0097640D01*
X0160998Y0097640D01*
X0167246Y0103042D02*
X0167246Y0105294D01*
X0167997Y0106045D01*
X0169498Y0106045D01*
X0170249Y0105294D01*
X0170249Y0103042D01*
X0171750Y0103042D02*
X0167246Y0103042D01*
X0170249Y0104543D02*
X0171750Y0106045D01*
X0178746Y0100643D02*
X0178746Y0097640D01*
X0180998Y0097640D01*
X0180247Y0099141D01*
X0180247Y0099892D01*
X0180998Y0100643D01*
X0182499Y0100643D01*
X0183250Y0099892D01*
X0183250Y0098391D01*
X0182499Y0097640D01*
X0207246Y0103042D02*
X0207246Y0105294D01*
X0207997Y0106045D01*
X0209498Y0106045D01*
X0210249Y0105294D01*
X0210249Y0103042D01*
X0211750Y0103042D02*
X0207246Y0103042D01*
X0210249Y0104543D02*
X0211750Y0106045D01*
X0209498Y0107646D02*
X0209498Y0110649D01*
X0207246Y0109898D02*
X0209498Y0107646D01*
X0211750Y0109898D02*
X0207246Y0109898D01*
X0206946Y0123050D02*
X0209949Y0126053D01*
X0209949Y0126803D01*
X0209198Y0127554D01*
X0207697Y0127554D01*
X0206946Y0126803D01*
X0205345Y0126803D02*
X0205345Y0125302D01*
X0204594Y0124551D01*
X0202342Y0124551D01*
X0202342Y0123050D02*
X0202342Y0127554D01*
X0204594Y0127554D01*
X0205345Y0126803D01*
X0200741Y0127554D02*
X0199239Y0127554D01*
X0199990Y0127554D02*
X0199990Y0123801D01*
X0199239Y0123050D01*
X0198489Y0123050D01*
X0197738Y0123801D01*
X0206946Y0123050D02*
X0209949Y0123050D01*
X0151750Y0110649D02*
X0151750Y0107646D01*
X0151750Y0109147D02*
X0147246Y0109147D01*
X0148747Y0107646D01*
X0147997Y0106045D02*
X0149498Y0106045D01*
X0150249Y0105294D01*
X0150249Y0103042D01*
X0151750Y0103042D02*
X0147246Y0103042D01*
X0147246Y0105294D01*
X0147997Y0106045D01*
X0150249Y0104543D02*
X0151750Y0106045D01*
X0143250Y0105297D02*
X0143250Y0106798D01*
X0142499Y0107549D01*
X0141749Y0107549D01*
X0140998Y0106798D01*
X0140998Y0104546D01*
X0142499Y0104546D01*
X0143250Y0105297D01*
X0143250Y0102995D02*
X0143250Y0102244D01*
X0142499Y0102244D01*
X0142499Y0102995D01*
X0143250Y0102995D01*
X0140998Y0104546D02*
X0139497Y0106047D01*
X0138746Y0107549D01*
X0138746Y0100643D02*
X0138746Y0097640D01*
X0140998Y0097640D01*
X0140247Y0099141D01*
X0140247Y0099892D01*
X0140998Y0100643D01*
X0142499Y0100643D01*
X0143250Y0099892D01*
X0143250Y0098391D01*
X0142499Y0097640D01*
D13*
X0144089Y0071804D02*
X0144089Y0067200D01*
X0145623Y0067200D02*
X0142554Y0067200D01*
X0141019Y0067200D02*
X0139485Y0068735D01*
X0141019Y0067967D02*
X0140252Y0067200D01*
X0138717Y0067200D01*
X0137950Y0067967D01*
X0137950Y0071037D01*
X0138717Y0071804D01*
X0140252Y0071804D01*
X0141019Y0071037D01*
X0141019Y0067967D01*
X0142554Y0070269D02*
X0144089Y0071804D01*
X0157950Y0061037D02*
X0158717Y0061804D01*
X0160252Y0061804D01*
X0161019Y0061037D01*
X0161019Y0057967D01*
X0160252Y0057200D01*
X0158717Y0057200D01*
X0157950Y0057967D01*
X0157950Y0061037D01*
X0162554Y0061037D02*
X0163321Y0061804D01*
X0164856Y0061804D01*
X0165623Y0061037D01*
X0165623Y0060269D01*
X0162554Y0057200D01*
X0165623Y0057200D01*
X0161019Y0057200D02*
X0159485Y0058735D01*
X0177950Y0067967D02*
X0178717Y0067200D01*
X0180252Y0067200D01*
X0181019Y0067967D01*
X0181019Y0071037D01*
X0180252Y0071804D01*
X0178717Y0071804D01*
X0177950Y0071037D01*
X0177950Y0067967D01*
X0179485Y0068735D02*
X0181019Y0067200D01*
X0182554Y0069502D02*
X0185623Y0069502D01*
X0184856Y0067200D02*
X0184856Y0071804D01*
X0182554Y0069502D01*
X0197950Y0061037D02*
X0198717Y0061804D01*
X0200252Y0061804D01*
X0201019Y0061037D01*
X0201019Y0057967D01*
X0200252Y0057200D01*
X0198717Y0057200D01*
X0197950Y0057967D01*
X0197950Y0061037D01*
X0199485Y0058735D02*
X0201019Y0057200D01*
X0202554Y0057967D02*
X0203321Y0057200D01*
X0204856Y0057200D01*
X0205623Y0057967D01*
X0205623Y0058735D01*
X0204856Y0059502D01*
X0204089Y0059502D01*
X0204856Y0059502D02*
X0205623Y0060269D01*
X0205623Y0061037D01*
X0204856Y0061804D01*
X0203321Y0061804D01*
X0202554Y0061037D01*
X0104835Y0063170D02*
X0104835Y0063937D01*
X0104067Y0064705D01*
X0100231Y0064705D01*
X0100231Y0062403D01*
X0100998Y0061635D01*
X0102533Y0061635D01*
X0103300Y0062403D01*
X0103300Y0064705D01*
X0103300Y0066239D02*
X0098696Y0066239D01*
X0100231Y0067007D02*
X0100231Y0068541D01*
X0100998Y0069309D01*
X0103300Y0069309D01*
X0102533Y0071610D02*
X0099463Y0071610D01*
X0100231Y0070843D02*
X0100231Y0072378D01*
X0102533Y0071610D02*
X0103300Y0072378D01*
X0100231Y0067007D02*
X0100998Y0066239D01*
X0103300Y0060101D02*
X0103300Y0058566D01*
X0103300Y0059333D02*
X0100231Y0059333D01*
X0100231Y0058566D01*
X0100231Y0057031D02*
X0100231Y0056264D01*
X0101765Y0054729D01*
X0100231Y0054729D02*
X0103300Y0054729D01*
X0098696Y0059333D02*
X0097929Y0059333D01*
X0100998Y0048591D02*
X0100231Y0047824D01*
X0100231Y0046289D01*
X0100998Y0045522D01*
X0102533Y0045522D01*
X0103300Y0046289D01*
X0103300Y0047824D01*
X0102533Y0048591D01*
X0100998Y0048591D01*
X0100998Y0043987D02*
X0103300Y0043987D01*
X0100998Y0043987D02*
X0100231Y0043220D01*
X0100231Y0040918D01*
X0103300Y0040918D01*
X0103300Y0039383D02*
X0103300Y0037848D01*
X0103300Y0038616D02*
X0100231Y0038616D01*
X0100231Y0037848D01*
X0100231Y0036314D02*
X0103300Y0036314D01*
X0103300Y0034012D01*
X0102533Y0033244D01*
X0100231Y0033244D01*
X0100231Y0031710D02*
X0100231Y0029408D01*
X0100998Y0028641D01*
X0102533Y0028641D01*
X0103300Y0029408D01*
X0103300Y0031710D01*
X0098696Y0031710D01*
X0100231Y0027106D02*
X0100231Y0026339D01*
X0101765Y0024804D01*
X0100231Y0024804D02*
X0103300Y0024804D01*
X0103300Y0023269D02*
X0100231Y0023269D01*
X0098696Y0021735D01*
X0100231Y0020200D01*
X0103300Y0020200D01*
X0100998Y0020200D02*
X0100998Y0023269D01*
X0098696Y0038616D02*
X0097929Y0038616D01*
X0048300Y0038616D02*
X0045231Y0038616D01*
X0045231Y0037848D01*
X0045231Y0036314D02*
X0048300Y0036314D01*
X0048300Y0034012D01*
X0047533Y0033244D01*
X0045231Y0033244D01*
X0045231Y0031710D02*
X0045231Y0029408D01*
X0045998Y0028641D01*
X0047533Y0028641D01*
X0048300Y0029408D01*
X0048300Y0031710D01*
X0043696Y0031710D01*
X0045231Y0027106D02*
X0045231Y0026339D01*
X0046765Y0024804D01*
X0045231Y0024804D02*
X0048300Y0024804D01*
X0048300Y0023269D02*
X0045231Y0023269D01*
X0043696Y0021735D01*
X0045231Y0020200D01*
X0048300Y0020200D01*
X0045998Y0020200D02*
X0045998Y0023269D01*
X0048300Y0037848D02*
X0048300Y0039383D01*
X0048300Y0040918D02*
X0045231Y0040918D01*
X0045231Y0043220D01*
X0045998Y0043987D01*
X0048300Y0043987D01*
X0047533Y0045522D02*
X0045998Y0045522D01*
X0045231Y0046289D01*
X0045231Y0047824D01*
X0045998Y0048591D01*
X0047533Y0048591D01*
X0048300Y0047824D01*
X0048300Y0046289D01*
X0047533Y0045522D01*
X0043696Y0038616D02*
X0042929Y0038616D01*
X0043696Y0054729D02*
X0043696Y0055497D01*
X0048300Y0055497D01*
X0048300Y0056264D02*
X0048300Y0054729D01*
X0047533Y0057799D02*
X0045998Y0057799D01*
X0045231Y0058566D01*
X0045231Y0060101D01*
X0045998Y0060868D01*
X0046765Y0060868D01*
X0046765Y0057799D01*
X0047533Y0057799D02*
X0048300Y0058566D01*
X0048300Y0060101D01*
X0048300Y0063170D02*
X0044463Y0063170D01*
X0043696Y0063937D01*
X0045231Y0065472D02*
X0045231Y0067007D01*
X0044463Y0066239D02*
X0047533Y0066239D01*
X0048300Y0067007D01*
X0045998Y0063937D02*
X0045998Y0062403D01*
X0165928Y0142700D02*
X0168997Y0142700D01*
X0170532Y0142700D02*
X0173601Y0142700D01*
X0175136Y0142700D02*
X0177438Y0142700D01*
X0178205Y0143467D01*
X0178205Y0146537D01*
X0177438Y0147304D01*
X0175136Y0147304D01*
X0175136Y0142700D01*
X0172067Y0145002D02*
X0170532Y0145002D01*
X0170532Y0147304D02*
X0170532Y0142700D01*
X0165928Y0142700D02*
X0165928Y0147304D01*
X0170532Y0147304D02*
X0173601Y0147304D01*
X0184344Y0147304D02*
X0184344Y0142700D01*
X0184344Y0145002D02*
X0187413Y0145002D01*
X0188948Y0145002D02*
X0188948Y0143467D01*
X0189715Y0142700D01*
X0191250Y0142700D01*
X0192017Y0144235D02*
X0188948Y0144235D01*
X0188948Y0145002D02*
X0189715Y0145769D01*
X0191250Y0145769D01*
X0192017Y0145002D01*
X0192017Y0144235D01*
X0193552Y0143467D02*
X0194319Y0144235D01*
X0196621Y0144235D01*
X0196621Y0145002D02*
X0196621Y0142700D01*
X0194319Y0142700D01*
X0193552Y0143467D01*
X0195853Y0145769D02*
X0196621Y0145002D01*
X0195853Y0145769D02*
X0194319Y0145769D01*
X0198155Y0145002D02*
X0198923Y0145769D01*
X0201225Y0145769D01*
X0201225Y0147304D02*
X0201225Y0142700D01*
X0198923Y0142700D01*
X0198155Y0143467D01*
X0198155Y0145002D01*
X0202759Y0145002D02*
X0202759Y0143467D01*
X0203527Y0142700D01*
X0205061Y0142700D01*
X0205829Y0144235D02*
X0202759Y0144235D01*
X0202759Y0145002D02*
X0203527Y0145769D01*
X0205061Y0145769D01*
X0205829Y0145002D01*
X0205829Y0144235D01*
X0207363Y0144235D02*
X0208898Y0145769D01*
X0209665Y0145769D01*
X0207363Y0145769D02*
X0207363Y0142700D01*
X0187413Y0142700D02*
X0187413Y0147304D01*
D14*
X0225500Y0145000D02*
X0225500Y0152500D01*
X0266500Y0152500D01*
X0266500Y0145000D01*
X0263000Y0145000D01*
X0263000Y0139000D01*
X0266500Y0139000D01*
X0266500Y0090000D01*
X0225500Y0090000D01*
X0225500Y0139000D01*
X0229000Y0139000D01*
X0229000Y0145000D01*
X0225500Y0145000D01*
X0238900Y0139000D02*
X0238902Y0139174D01*
X0238909Y0139348D01*
X0238919Y0139522D01*
X0238934Y0139696D01*
X0238953Y0139869D01*
X0238977Y0140042D01*
X0239005Y0140214D01*
X0239036Y0140385D01*
X0239073Y0140556D01*
X0239113Y0140725D01*
X0239157Y0140894D01*
X0239206Y0141061D01*
X0239258Y0141227D01*
X0239315Y0141392D01*
X0239376Y0141555D01*
X0239440Y0141717D01*
X0239509Y0141877D01*
X0239582Y0142036D01*
X0239658Y0142192D01*
X0239738Y0142347D01*
X0239822Y0142500D01*
X0239910Y0142650D01*
X0240002Y0142798D01*
X0240097Y0142945D01*
X0240195Y0143088D01*
X0240297Y0143229D01*
X0240403Y0143368D01*
X0240512Y0143504D01*
X0240624Y0143638D01*
X0240739Y0143768D01*
X0240858Y0143896D01*
X0240980Y0144020D01*
X0241104Y0144142D01*
X0241232Y0144261D01*
X0241362Y0144376D01*
X0241496Y0144488D01*
X0241632Y0144597D01*
X0241771Y0144703D01*
X0241912Y0144805D01*
X0242055Y0144903D01*
X0242202Y0144998D01*
X0242350Y0145090D01*
X0242500Y0145178D01*
X0242653Y0145262D01*
X0242808Y0145342D01*
X0242964Y0145418D01*
X0243123Y0145491D01*
X0243283Y0145560D01*
X0243445Y0145624D01*
X0243608Y0145685D01*
X0243773Y0145742D01*
X0243939Y0145794D01*
X0244106Y0145843D01*
X0244275Y0145887D01*
X0244444Y0145927D01*
X0244615Y0145964D01*
X0244786Y0145995D01*
X0244958Y0146023D01*
X0245131Y0146047D01*
X0245304Y0146066D01*
X0245478Y0146081D01*
X0245652Y0146091D01*
X0245826Y0146098D01*
X0246000Y0146100D01*
X0246174Y0146098D01*
X0246348Y0146091D01*
X0246522Y0146081D01*
X0246696Y0146066D01*
X0246869Y0146047D01*
X0247042Y0146023D01*
X0247214Y0145995D01*
X0247385Y0145964D01*
X0247556Y0145927D01*
X0247725Y0145887D01*
X0247894Y0145843D01*
X0248061Y0145794D01*
X0248227Y0145742D01*
X0248392Y0145685D01*
X0248555Y0145624D01*
X0248717Y0145560D01*
X0248877Y0145491D01*
X0249036Y0145418D01*
X0249192Y0145342D01*
X0249347Y0145262D01*
X0249500Y0145178D01*
X0249650Y0145090D01*
X0249798Y0144998D01*
X0249945Y0144903D01*
X0250088Y0144805D01*
X0250229Y0144703D01*
X0250368Y0144597D01*
X0250504Y0144488D01*
X0250638Y0144376D01*
X0250768Y0144261D01*
X0250896Y0144142D01*
X0251020Y0144020D01*
X0251142Y0143896D01*
X0251261Y0143768D01*
X0251376Y0143638D01*
X0251488Y0143504D01*
X0251597Y0143368D01*
X0251703Y0143229D01*
X0251805Y0143088D01*
X0251903Y0142945D01*
X0251998Y0142798D01*
X0252090Y0142650D01*
X0252178Y0142500D01*
X0252262Y0142347D01*
X0252342Y0142192D01*
X0252418Y0142036D01*
X0252491Y0141877D01*
X0252560Y0141717D01*
X0252624Y0141555D01*
X0252685Y0141392D01*
X0252742Y0141227D01*
X0252794Y0141061D01*
X0252843Y0140894D01*
X0252887Y0140725D01*
X0252927Y0140556D01*
X0252964Y0140385D01*
X0252995Y0140214D01*
X0253023Y0140042D01*
X0253047Y0139869D01*
X0253066Y0139696D01*
X0253081Y0139522D01*
X0253091Y0139348D01*
X0253098Y0139174D01*
X0253100Y0139000D01*
X0253098Y0138826D01*
X0253091Y0138652D01*
X0253081Y0138478D01*
X0253066Y0138304D01*
X0253047Y0138131D01*
X0253023Y0137958D01*
X0252995Y0137786D01*
X0252964Y0137615D01*
X0252927Y0137444D01*
X0252887Y0137275D01*
X0252843Y0137106D01*
X0252794Y0136939D01*
X0252742Y0136773D01*
X0252685Y0136608D01*
X0252624Y0136445D01*
X0252560Y0136283D01*
X0252491Y0136123D01*
X0252418Y0135964D01*
X0252342Y0135808D01*
X0252262Y0135653D01*
X0252178Y0135500D01*
X0252090Y0135350D01*
X0251998Y0135202D01*
X0251903Y0135055D01*
X0251805Y0134912D01*
X0251703Y0134771D01*
X0251597Y0134632D01*
X0251488Y0134496D01*
X0251376Y0134362D01*
X0251261Y0134232D01*
X0251142Y0134104D01*
X0251020Y0133980D01*
X0250896Y0133858D01*
X0250768Y0133739D01*
X0250638Y0133624D01*
X0250504Y0133512D01*
X0250368Y0133403D01*
X0250229Y0133297D01*
X0250088Y0133195D01*
X0249945Y0133097D01*
X0249798Y0133002D01*
X0249650Y0132910D01*
X0249500Y0132822D01*
X0249347Y0132738D01*
X0249192Y0132658D01*
X0249036Y0132582D01*
X0248877Y0132509D01*
X0248717Y0132440D01*
X0248555Y0132376D01*
X0248392Y0132315D01*
X0248227Y0132258D01*
X0248061Y0132206D01*
X0247894Y0132157D01*
X0247725Y0132113D01*
X0247556Y0132073D01*
X0247385Y0132036D01*
X0247214Y0132005D01*
X0247042Y0131977D01*
X0246869Y0131953D01*
X0246696Y0131934D01*
X0246522Y0131919D01*
X0246348Y0131909D01*
X0246174Y0131902D01*
X0246000Y0131900D01*
X0245826Y0131902D01*
X0245652Y0131909D01*
X0245478Y0131919D01*
X0245304Y0131934D01*
X0245131Y0131953D01*
X0244958Y0131977D01*
X0244786Y0132005D01*
X0244615Y0132036D01*
X0244444Y0132073D01*
X0244275Y0132113D01*
X0244106Y0132157D01*
X0243939Y0132206D01*
X0243773Y0132258D01*
X0243608Y0132315D01*
X0243445Y0132376D01*
X0243283Y0132440D01*
X0243123Y0132509D01*
X0242964Y0132582D01*
X0242808Y0132658D01*
X0242653Y0132738D01*
X0242500Y0132822D01*
X0242350Y0132910D01*
X0242202Y0133002D01*
X0242055Y0133097D01*
X0241912Y0133195D01*
X0241771Y0133297D01*
X0241632Y0133403D01*
X0241496Y0133512D01*
X0241362Y0133624D01*
X0241232Y0133739D01*
X0241104Y0133858D01*
X0240980Y0133980D01*
X0240858Y0134104D01*
X0240739Y0134232D01*
X0240624Y0134362D01*
X0240512Y0134496D01*
X0240403Y0134632D01*
X0240297Y0134771D01*
X0240195Y0134912D01*
X0240097Y0135055D01*
X0240002Y0135202D01*
X0239910Y0135350D01*
X0239822Y0135500D01*
X0239738Y0135653D01*
X0239658Y0135808D01*
X0239582Y0135964D01*
X0239509Y0136123D01*
X0239440Y0136283D01*
X0239376Y0136445D01*
X0239315Y0136608D01*
X0239258Y0136773D01*
X0239206Y0136939D01*
X0239157Y0137106D01*
X0239113Y0137275D01*
X0239073Y0137444D01*
X0239036Y0137615D01*
X0239005Y0137786D01*
X0238977Y0137958D01*
X0238953Y0138131D01*
X0238934Y0138304D01*
X0238919Y0138478D01*
X0238909Y0138652D01*
X0238902Y0138826D01*
X0238900Y0139000D01*
X0204500Y0112500D02*
X0197500Y0112500D01*
X0197440Y0112498D01*
X0197379Y0112493D01*
X0197320Y0112484D01*
X0197261Y0112471D01*
X0197202Y0112455D01*
X0197145Y0112435D01*
X0197090Y0112412D01*
X0197035Y0112385D01*
X0196983Y0112356D01*
X0196932Y0112323D01*
X0196883Y0112287D01*
X0196837Y0112249D01*
X0196793Y0112207D01*
X0196751Y0112163D01*
X0196713Y0112117D01*
X0196677Y0112068D01*
X0196644Y0112017D01*
X0196615Y0111965D01*
X0196588Y0111910D01*
X0196565Y0111855D01*
X0196545Y0111798D01*
X0196529Y0111739D01*
X0196516Y0111680D01*
X0196507Y0111621D01*
X0196502Y0111560D01*
X0196500Y0111500D01*
X0196500Y0110000D01*
X0197000Y0109500D01*
X0197000Y0090500D01*
X0196500Y0090000D01*
X0196500Y0088500D01*
X0196502Y0088440D01*
X0196507Y0088379D01*
X0196516Y0088320D01*
X0196529Y0088261D01*
X0196545Y0088202D01*
X0196565Y0088145D01*
X0196588Y0088090D01*
X0196615Y0088035D01*
X0196644Y0087983D01*
X0196677Y0087932D01*
X0196713Y0087883D01*
X0196751Y0087837D01*
X0196793Y0087793D01*
X0196837Y0087751D01*
X0196883Y0087713D01*
X0196932Y0087677D01*
X0196983Y0087644D01*
X0197035Y0087615D01*
X0197090Y0087588D01*
X0197145Y0087565D01*
X0197202Y0087545D01*
X0197261Y0087529D01*
X0197320Y0087516D01*
X0197379Y0087507D01*
X0197440Y0087502D01*
X0197500Y0087500D01*
X0204500Y0087500D01*
X0204560Y0087502D01*
X0204621Y0087507D01*
X0204680Y0087516D01*
X0204739Y0087529D01*
X0204798Y0087545D01*
X0204855Y0087565D01*
X0204910Y0087588D01*
X0204965Y0087615D01*
X0205017Y0087644D01*
X0205068Y0087677D01*
X0205117Y0087713D01*
X0205163Y0087751D01*
X0205207Y0087793D01*
X0205249Y0087837D01*
X0205287Y0087883D01*
X0205323Y0087932D01*
X0205356Y0087983D01*
X0205385Y0088035D01*
X0205412Y0088090D01*
X0205435Y0088145D01*
X0205455Y0088202D01*
X0205471Y0088261D01*
X0205484Y0088320D01*
X0205493Y0088379D01*
X0205498Y0088440D01*
X0205500Y0088500D01*
X0205500Y0090000D01*
X0205000Y0090500D01*
X0205000Y0109500D01*
X0205500Y0110000D01*
X0205500Y0111500D01*
X0205498Y0111560D01*
X0205493Y0111621D01*
X0205484Y0111680D01*
X0205471Y0111739D01*
X0205455Y0111798D01*
X0205435Y0111855D01*
X0205412Y0111910D01*
X0205385Y0111965D01*
X0205356Y0112017D01*
X0205323Y0112068D01*
X0205287Y0112117D01*
X0205249Y0112163D01*
X0205207Y0112207D01*
X0205163Y0112249D01*
X0205117Y0112287D01*
X0205068Y0112323D01*
X0205017Y0112356D01*
X0204965Y0112385D01*
X0204910Y0112412D01*
X0204855Y0112435D01*
X0204798Y0112455D01*
X0204739Y0112471D01*
X0204680Y0112484D01*
X0204621Y0112493D01*
X0204560Y0112498D01*
X0204500Y0112500D01*
X0185500Y0111500D02*
X0185500Y0110000D01*
X0185000Y0109500D01*
X0185000Y0090500D01*
X0185500Y0090000D01*
X0185500Y0088500D01*
X0185498Y0088440D01*
X0185493Y0088379D01*
X0185484Y0088320D01*
X0185471Y0088261D01*
X0185455Y0088202D01*
X0185435Y0088145D01*
X0185412Y0088090D01*
X0185385Y0088035D01*
X0185356Y0087983D01*
X0185323Y0087932D01*
X0185287Y0087883D01*
X0185249Y0087837D01*
X0185207Y0087793D01*
X0185163Y0087751D01*
X0185117Y0087713D01*
X0185068Y0087677D01*
X0185017Y0087644D01*
X0184965Y0087615D01*
X0184910Y0087588D01*
X0184855Y0087565D01*
X0184798Y0087545D01*
X0184739Y0087529D01*
X0184680Y0087516D01*
X0184621Y0087507D01*
X0184560Y0087502D01*
X0184500Y0087500D01*
X0177500Y0087500D01*
X0177440Y0087502D01*
X0177379Y0087507D01*
X0177320Y0087516D01*
X0177261Y0087529D01*
X0177202Y0087545D01*
X0177145Y0087565D01*
X0177090Y0087588D01*
X0177035Y0087615D01*
X0176983Y0087644D01*
X0176932Y0087677D01*
X0176883Y0087713D01*
X0176837Y0087751D01*
X0176793Y0087793D01*
X0176751Y0087837D01*
X0176713Y0087883D01*
X0176677Y0087932D01*
X0176644Y0087983D01*
X0176615Y0088035D01*
X0176588Y0088090D01*
X0176565Y0088145D01*
X0176545Y0088202D01*
X0176529Y0088261D01*
X0176516Y0088320D01*
X0176507Y0088379D01*
X0176502Y0088440D01*
X0176500Y0088500D01*
X0176500Y0090000D01*
X0177000Y0090500D01*
X0177000Y0109500D01*
X0176500Y0110000D01*
X0176500Y0111500D01*
X0176502Y0111560D01*
X0176507Y0111621D01*
X0176516Y0111680D01*
X0176529Y0111739D01*
X0176545Y0111798D01*
X0176565Y0111855D01*
X0176588Y0111910D01*
X0176615Y0111965D01*
X0176644Y0112017D01*
X0176677Y0112068D01*
X0176713Y0112117D01*
X0176751Y0112163D01*
X0176793Y0112207D01*
X0176837Y0112249D01*
X0176883Y0112287D01*
X0176932Y0112323D01*
X0176983Y0112356D01*
X0177035Y0112385D01*
X0177090Y0112412D01*
X0177145Y0112435D01*
X0177202Y0112455D01*
X0177261Y0112471D01*
X0177320Y0112484D01*
X0177379Y0112493D01*
X0177440Y0112498D01*
X0177500Y0112500D01*
X0184500Y0112500D01*
X0184560Y0112498D01*
X0184621Y0112493D01*
X0184680Y0112484D01*
X0184739Y0112471D01*
X0184798Y0112455D01*
X0184855Y0112435D01*
X0184910Y0112412D01*
X0184965Y0112385D01*
X0185017Y0112356D01*
X0185068Y0112323D01*
X0185117Y0112287D01*
X0185163Y0112249D01*
X0185207Y0112207D01*
X0185249Y0112163D01*
X0185287Y0112117D01*
X0185323Y0112068D01*
X0185356Y0112017D01*
X0185385Y0111965D01*
X0185412Y0111910D01*
X0185435Y0111855D01*
X0185455Y0111798D01*
X0185471Y0111739D01*
X0185484Y0111680D01*
X0185493Y0111621D01*
X0185498Y0111560D01*
X0185500Y0111500D01*
X0165500Y0111500D02*
X0165500Y0110000D01*
X0165000Y0109500D01*
X0165000Y0090500D01*
X0165500Y0090000D01*
X0165500Y0088500D01*
X0165498Y0088440D01*
X0165493Y0088379D01*
X0165484Y0088320D01*
X0165471Y0088261D01*
X0165455Y0088202D01*
X0165435Y0088145D01*
X0165412Y0088090D01*
X0165385Y0088035D01*
X0165356Y0087983D01*
X0165323Y0087932D01*
X0165287Y0087883D01*
X0165249Y0087837D01*
X0165207Y0087793D01*
X0165163Y0087751D01*
X0165117Y0087713D01*
X0165068Y0087677D01*
X0165017Y0087644D01*
X0164965Y0087615D01*
X0164910Y0087588D01*
X0164855Y0087565D01*
X0164798Y0087545D01*
X0164739Y0087529D01*
X0164680Y0087516D01*
X0164621Y0087507D01*
X0164560Y0087502D01*
X0164500Y0087500D01*
X0157500Y0087500D01*
X0157440Y0087502D01*
X0157379Y0087507D01*
X0157320Y0087516D01*
X0157261Y0087529D01*
X0157202Y0087545D01*
X0157145Y0087565D01*
X0157090Y0087588D01*
X0157035Y0087615D01*
X0156983Y0087644D01*
X0156932Y0087677D01*
X0156883Y0087713D01*
X0156837Y0087751D01*
X0156793Y0087793D01*
X0156751Y0087837D01*
X0156713Y0087883D01*
X0156677Y0087932D01*
X0156644Y0087983D01*
X0156615Y0088035D01*
X0156588Y0088090D01*
X0156565Y0088145D01*
X0156545Y0088202D01*
X0156529Y0088261D01*
X0156516Y0088320D01*
X0156507Y0088379D01*
X0156502Y0088440D01*
X0156500Y0088500D01*
X0156500Y0090000D01*
X0157000Y0090500D01*
X0157000Y0109500D01*
X0156500Y0110000D01*
X0156500Y0111500D01*
X0156502Y0111560D01*
X0156507Y0111621D01*
X0156516Y0111680D01*
X0156529Y0111739D01*
X0156545Y0111798D01*
X0156565Y0111855D01*
X0156588Y0111910D01*
X0156615Y0111965D01*
X0156644Y0112017D01*
X0156677Y0112068D01*
X0156713Y0112117D01*
X0156751Y0112163D01*
X0156793Y0112207D01*
X0156837Y0112249D01*
X0156883Y0112287D01*
X0156932Y0112323D01*
X0156983Y0112356D01*
X0157035Y0112385D01*
X0157090Y0112412D01*
X0157145Y0112435D01*
X0157202Y0112455D01*
X0157261Y0112471D01*
X0157320Y0112484D01*
X0157379Y0112493D01*
X0157440Y0112498D01*
X0157500Y0112500D01*
X0164500Y0112500D01*
X0164560Y0112498D01*
X0164621Y0112493D01*
X0164680Y0112484D01*
X0164739Y0112471D01*
X0164798Y0112455D01*
X0164855Y0112435D01*
X0164910Y0112412D01*
X0164965Y0112385D01*
X0165017Y0112356D01*
X0165068Y0112323D01*
X0165117Y0112287D01*
X0165163Y0112249D01*
X0165207Y0112207D01*
X0165249Y0112163D01*
X0165287Y0112117D01*
X0165323Y0112068D01*
X0165356Y0112017D01*
X0165385Y0111965D01*
X0165412Y0111910D01*
X0165435Y0111855D01*
X0165455Y0111798D01*
X0165471Y0111739D01*
X0165484Y0111680D01*
X0165493Y0111621D01*
X0165498Y0111560D01*
X0165500Y0111500D01*
X0145500Y0111500D02*
X0145500Y0110000D01*
X0145000Y0109500D01*
X0145000Y0090500D01*
X0145500Y0090000D01*
X0145500Y0088500D01*
X0145498Y0088440D01*
X0145493Y0088379D01*
X0145484Y0088320D01*
X0145471Y0088261D01*
X0145455Y0088202D01*
X0145435Y0088145D01*
X0145412Y0088090D01*
X0145385Y0088035D01*
X0145356Y0087983D01*
X0145323Y0087932D01*
X0145287Y0087883D01*
X0145249Y0087837D01*
X0145207Y0087793D01*
X0145163Y0087751D01*
X0145117Y0087713D01*
X0145068Y0087677D01*
X0145017Y0087644D01*
X0144965Y0087615D01*
X0144910Y0087588D01*
X0144855Y0087565D01*
X0144798Y0087545D01*
X0144739Y0087529D01*
X0144680Y0087516D01*
X0144621Y0087507D01*
X0144560Y0087502D01*
X0144500Y0087500D01*
X0137500Y0087500D01*
X0137440Y0087502D01*
X0137379Y0087507D01*
X0137320Y0087516D01*
X0137261Y0087529D01*
X0137202Y0087545D01*
X0137145Y0087565D01*
X0137090Y0087588D01*
X0137035Y0087615D01*
X0136983Y0087644D01*
X0136932Y0087677D01*
X0136883Y0087713D01*
X0136837Y0087751D01*
X0136793Y0087793D01*
X0136751Y0087837D01*
X0136713Y0087883D01*
X0136677Y0087932D01*
X0136644Y0087983D01*
X0136615Y0088035D01*
X0136588Y0088090D01*
X0136565Y0088145D01*
X0136545Y0088202D01*
X0136529Y0088261D01*
X0136516Y0088320D01*
X0136507Y0088379D01*
X0136502Y0088440D01*
X0136500Y0088500D01*
X0136500Y0090000D01*
X0137000Y0090500D01*
X0137000Y0109500D01*
X0136500Y0110000D01*
X0136500Y0111500D01*
X0136502Y0111560D01*
X0136507Y0111621D01*
X0136516Y0111680D01*
X0136529Y0111739D01*
X0136545Y0111798D01*
X0136565Y0111855D01*
X0136588Y0111910D01*
X0136615Y0111965D01*
X0136644Y0112017D01*
X0136677Y0112068D01*
X0136713Y0112117D01*
X0136751Y0112163D01*
X0136793Y0112207D01*
X0136837Y0112249D01*
X0136883Y0112287D01*
X0136932Y0112323D01*
X0136983Y0112356D01*
X0137035Y0112385D01*
X0137090Y0112412D01*
X0137145Y0112435D01*
X0137202Y0112455D01*
X0137261Y0112471D01*
X0137320Y0112484D01*
X0137379Y0112493D01*
X0137440Y0112498D01*
X0137500Y0112500D01*
X0144500Y0112500D01*
X0144560Y0112498D01*
X0144621Y0112493D01*
X0144680Y0112484D01*
X0144739Y0112471D01*
X0144798Y0112455D01*
X0144855Y0112435D01*
X0144910Y0112412D01*
X0144965Y0112385D01*
X0145017Y0112356D01*
X0145068Y0112323D01*
X0145117Y0112287D01*
X0145163Y0112249D01*
X0145207Y0112207D01*
X0145249Y0112163D01*
X0145287Y0112117D01*
X0145323Y0112068D01*
X0145356Y0112017D01*
X0145385Y0111965D01*
X0145412Y0111910D01*
X0145435Y0111855D01*
X0145455Y0111798D01*
X0145471Y0111739D01*
X0145484Y0111680D01*
X0145493Y0111621D01*
X0145498Y0111560D01*
X0145500Y0111500D01*
D15*
X0228000Y0125000D02*
X0228000Y0092500D01*
X0264000Y0092500D01*
X0264000Y0125000D01*
X0228000Y0125000D01*
D16*
X0236000Y0077750D03*
X0246000Y0077750D03*
X0256000Y0077750D03*
D17*
X0256000Y0084500D03*
X0246000Y0084500D03*
X0236000Y0084500D03*
D18*
X0224150Y0084800D02*
X0224150Y0082698D01*
X0223099Y0081647D01*
X0218896Y0081647D01*
X0217845Y0082698D01*
X0217845Y0084800D01*
X0218896Y0085851D01*
X0219946Y0088092D02*
X0217845Y0090194D01*
X0224150Y0090194D01*
X0224150Y0088092D02*
X0224150Y0092296D01*
X0224650Y0096850D02*
X0223599Y0096850D01*
X0219396Y0101054D01*
X0218345Y0101054D01*
X0218345Y0096850D01*
X0219396Y0103295D02*
X0220446Y0103295D01*
X0221497Y0104346D01*
X0221497Y0106448D01*
X0222548Y0107499D01*
X0223599Y0107499D01*
X0224650Y0106448D01*
X0224650Y0104346D01*
X0223599Y0103295D01*
X0222548Y0103295D01*
X0221497Y0104346D01*
X0219396Y0103295D02*
X0218345Y0104346D01*
X0218345Y0106448D01*
X0219396Y0107499D01*
X0220446Y0107499D01*
X0221497Y0106448D01*
X0219396Y0109741D02*
X0218345Y0110792D01*
X0218345Y0112894D01*
X0219396Y0113945D01*
X0223599Y0109741D01*
X0224650Y0110792D01*
X0224650Y0112894D01*
X0223599Y0113945D01*
X0219396Y0113945D01*
X0218345Y0116186D02*
X0221497Y0116186D01*
X0220446Y0118288D01*
X0220446Y0119339D01*
X0221497Y0120390D01*
X0223599Y0120390D01*
X0224650Y0119339D01*
X0224650Y0117237D01*
X0223599Y0116186D01*
X0218345Y0116186D02*
X0218345Y0120390D01*
X0218345Y0122632D02*
X0218345Y0126836D01*
X0218345Y0124734D02*
X0224650Y0124734D01*
X0223599Y0109741D02*
X0219396Y0109741D01*
X0223099Y0085851D02*
X0224150Y0084800D01*
X0224150Y0079452D02*
X0224150Y0077350D01*
X0224150Y0078401D02*
X0217845Y0078401D01*
X0217845Y0077350D02*
X0217845Y0079452D01*
D19*
X0201068Y0039853D02*
X0201068Y0036150D01*
X0202302Y0036150D02*
X0199833Y0036150D01*
X0198619Y0036767D02*
X0198002Y0036150D01*
X0196767Y0036150D01*
X0196150Y0036767D01*
X0196150Y0039236D01*
X0196767Y0039853D01*
X0198002Y0039853D01*
X0198619Y0039236D01*
X0199833Y0038619D02*
X0201068Y0039853D01*
X0162302Y0039236D02*
X0162302Y0038619D01*
X0159833Y0036150D01*
X0162302Y0036150D01*
X0158619Y0036767D02*
X0158002Y0036150D01*
X0156767Y0036150D01*
X0156150Y0036767D01*
X0156150Y0039236D01*
X0156767Y0039853D01*
X0158002Y0039853D01*
X0158619Y0039236D01*
X0159833Y0039236D02*
X0160450Y0039853D01*
X0161685Y0039853D01*
X0162302Y0039236D01*
D20*
X0161000Y0085800D03*
X0141000Y0085800D03*
X0181000Y0085800D03*
X0201000Y0085800D03*
X0201000Y0114200D03*
X0181000Y0114200D03*
X0161000Y0114200D03*
X0141000Y0114200D03*
M02*
