%
M48
M72
T01C0.02400
T02C0.03200
T03C0.04000
T04C0.04400
T05C0.11800
T06C0.12598
T07C0.13000
%
T01
X135400Y50200
X149800Y63000
X186600Y67800
X175400Y90200
X204200Y104600
T02
X201000Y120000
X181000Y120000
X161000Y120000
X141000Y120000
X141000Y80000
X161000Y80000
X181000Y80000
X201000Y80000
T03
X196000Y135000
X206000Y135000
X186000Y135000
X176000Y135000
X166000Y135000
X156000Y135000
X146000Y135000
X136000Y135000
X91000Y135000
X91000Y125000
X91000Y115000
X91000Y105000
X91000Y95000
X91000Y85000
X91000Y75000
X91000Y65000
X91000Y55000
X91000Y45000
X91000Y35000
X91000Y25000
X36000Y25000
X36000Y35000
X36000Y45000
X36000Y55000
X36000Y65000
X36000Y75000
X36000Y85000
X36000Y95000
X36000Y105000
X36000Y115000
X36000Y125000
X36000Y135000
X16000Y105000
X16000Y95000
X16000Y85000
X16000Y75000
X16000Y65000
X16000Y55000
T04
X236000Y80000
X246000Y80000
X256000Y80000
T05
X241000Y58937
X259504Y47126
X241000Y35315
T06
X11000Y25000
X121000Y48000
X121000Y112000
X116000Y145000
X11000Y145000
T07
X246000Y139000
M30
